<?xml version="1.0" encoding="iso-8859-1"?>
<!-- Generator: Adobe Illustrator 21.1.0, SVG Export Plug-In . SVG Version: 6.00 Build 0)  -->
<svg version="1.1" id="Layer_1" xmlns="http://www.w3.org/2000/svg" xmlns:xlink="http://www.w3.org/1999/xlink" x="0px" y="0px"
	 viewBox="0 0 100.353 100.353" style="enable-background:new 0 0 100.353 100.353;" xml:space="preserve">
<g>
	<path d="M87.225,21.452H71.377v-6.845c0-0.829-0.672-1.5-1.5-1.5s-1.5,0.671-1.5,1.5v6.845H29.912v-6.845
		c0-0.829-0.671-1.5-1.5-1.5s-1.5,0.671-1.5,1.5v6.845H12.776c-0.829,0-1.5,0.671-1.5,1.5v62.44c0,0.828,0.671,1.5,1.5,1.5h74.449
		c0.828,0,1.5-0.672,1.5-1.5v-62.44C88.725,22.123,88.053,21.452,87.225,21.452z M85.725,83.892H14.276v-59.44h12.636v4.541
		c0,0.829,0.671,1.5,1.5,1.5s1.5-0.671,1.5-1.5v-4.541h38.465v4.541c0,0.829,0.672,1.5,1.5,1.5s1.5-0.671,1.5-1.5v-4.541h14.348
		V83.892z"/>
	<path d="M70.898,64.342l-5.061-5.063c-0.586-0.586-1.535-0.586-2.121,0c-0.586,0.585-0.586,1.535,0,2.121l5.061,5.063l-5.061,5.063
		c-0.586,0.586-0.586,1.536,0,2.121c0.293,0.293,0.677,0.439,1.061,0.439s0.768-0.146,1.061-0.439l5.061-5.063l5.061,5.063
		c0.293,0.293,0.677,0.439,1.061,0.439s0.768-0.146,1.061-0.439c0.586-0.585,0.586-1.535,0-2.121l-5.061-5.063l5.061-5.063
		c0.586-0.586,0.586-1.536,0-2.121c-0.586-0.586-1.535-0.586-2.121,0L70.898,64.342z"/>
	<path d="M33.948,38.578h-9.249c-0.829,0-1.5,0.671-1.5,1.5v9.247c0,0.829,0.671,1.5,1.5,1.5h9.249c0.829,0,1.5-0.672,1.5-1.5
		v-9.247C35.448,39.249,34.777,38.578,33.948,38.578z M32.448,47.825h-6.249v-6.247h6.249V47.825z"/>
	<path d="M55.021,38.578h-9.246c-0.829,0-1.5,0.671-1.5,1.5v9.247c0,0.829,0.671,1.5,1.5,1.5h9.246c0.828,0,1.5-0.672,1.5-1.5
		v-9.247C56.521,39.249,55.85,38.578,55.021,38.578z M53.521,47.825h-6.246v-6.247h6.246V47.825z"/>
	<path d="M33.948,59.848h-9.249c-0.829,0-1.5,0.672-1.5,1.5v9.247c0,0.828,0.671,1.5,1.5,1.5h9.249c0.829,0,1.5-0.672,1.5-1.5
		v-9.247C35.448,60.52,34.777,59.848,33.948,59.848z M32.448,69.095h-6.249v-6.247h6.249V69.095z"/>
	<path d="M55.021,59.848h-9.246c-0.829,0-1.5,0.672-1.5,1.5v9.247c0,0.828,0.671,1.5,1.5,1.5h9.246c0.828,0,1.5-0.672,1.5-1.5
		v-9.247C56.521,60.52,55.85,59.848,55.021,59.848z M53.521,69.095h-6.246v-6.247h6.246V69.095z"/>
	<path d="M65.884,38.578c-0.828,0-1.5,0.671-1.5,1.5v9.247c0,0.829,0.672,1.5,1.5,1.5h9.249c0.828,0,1.5-0.672,1.5-1.5v-9.247
		c0-0.829-0.672-1.5-1.5-1.5H65.884z M73.633,47.825h-6.249v-6.247h6.249V47.825z"/>
</g>
</svg>
