<?xml version="1.0" encoding="iso-8859-1"?>
<!-- Generator: Adobe Illustrator 21.0.0, SVG Export Plug-In . SVG Version: 6.00 Build 0)  -->
<svg version="1.1" id="Layer_1" xmlns="http://www.w3.org/2000/svg" xmlns:xlink="http://www.w3.org/1999/xlink" x="0px" y="0px"
	 viewBox="0 0 100.353 100.353" style="enable-background:new 0 0 100.353 100.353;" xml:space="preserve">
<g>
	<path style="fill:#231F20;" d="M70.131,20.496c-2.024-1.42-4.482-1.968-6.919-1.539c-2.437,0.428-4.56,1.778-5.979,3.803
		c-2.93,4.18-1.915,9.965,2.264,12.896c1.614,1.129,3.467,1.671,5.303,1.671c2.92,0,5.796-1.373,7.594-3.936
		c1.419-2.023,1.965-4.48,1.538-6.917C73.504,24.039,72.155,21.915,70.131,20.496z M69.936,31.669
		c-1.979,2.822-5.891,3.508-8.719,1.53c-2.823-1.98-3.509-5.891-1.527-8.717c0.959-1.369,2.395-2.282,4.041-2.571
		c0.366-0.064,0.732-0.096,1.097-0.096c1.274,0,2.516,0.389,3.581,1.136c1.367,0.958,2.278,2.394,2.567,4.042
		S70.896,30.302,69.936,31.669z"/>
	<path style="fill:#231F20;" d="M76.149,11.913c-4.445-3.116-9.84-4.317-15.181-3.376c-5.345,0.939-10.004,3.903-13.119,8.346
		c-5.098,7.269-4.87,16.939,0.436,23.934L36.008,58.324l-7.974-5.591c-0.326-0.229-0.731-0.319-1.121-0.249
		c-0.393,0.069-0.741,0.291-0.969,0.617l-3.471,4.958c-0.475,0.678-0.311,1.613,0.367,2.088l7.97,5.591l-1.798,2.563l-7.971-5.591
		c-0.676-0.474-1.612-0.312-2.089,0.367l-3.479,4.958c-0.229,0.326-0.318,0.729-0.25,1.121c0.069,0.392,0.291,0.741,0.616,0.969
		l7.974,5.587l-4.16,5.94c-1.062,1.512-1.49,3.413-1.175,5.216c0.283,1.613,1.135,2.989,2.398,3.875
		c0.974,0.682,2.119,1.033,3.325,1.033c0.5,0,1.01-0.06,1.522-0.183c1.641-0.391,3.138-1.41,4.108-2.794L58.47,47.961
		c8.377,2.605,17.544-0.478,22.645-7.749C87.546,31.04,85.318,18.345,76.149,11.913z M78.66,38.487
		c-4.547,6.483-12.887,9.064-20.286,6.267c-0.375-0.142-0.791-0.127-1.156,0.041c-0.362,0.166-0.643,0.469-0.78,0.842L27.377,87.075
		c-0.556,0.793-1.411,1.375-2.347,1.599c-0.901,0.214-1.766,0.077-2.432-0.39c-0.606-0.425-1.02-1.112-1.164-1.935
		c-0.18-1.025,0.066-2.108,0.676-2.976l5.021-7.17c0.476-0.678,0.311-1.613-0.367-2.089l-7.973-5.587l1.755-2.501l7.971,5.591
		c0.325,0.228,0.728,0.317,1.12,0.25c0.393-0.069,0.741-0.291,0.97-0.616l3.52-5.019c0.477-0.678,0.312-1.614-0.366-2.089
		l-7.971-5.591l1.751-2.5l7.973,5.59c0.68,0.477,1.613,0.312,2.09-0.367l13.578-19.362l0.016-0.015
		c0.601-0.546,0.658-1.47,0.13-2.086c-5.146-6.006-5.565-14.726-1.021-21.207c2.654-3.787,6.626-6.313,11.181-7.113
		c4.555-0.799,9.15,0.222,12.939,2.878C82.242,19.852,84.14,30.671,78.66,38.487z"/>
</g>
</svg>
